<mxfile host="app.diagrams.net" modified="2023-01-16T14:50:25.868Z" agent="5.0 (Windows)" etag="fp0tH2-AWBL_u4pXi73i" version="20.7.4" type="github">
  <diagram id="xbzJvvQROZEklqqwHJPy" name="Page-1">
    <mxGraphModel dx="699" dy="484" grid="1" gridSize="10" guides="1" tooltips="1" connect="1" arrows="1" fold="1" page="1" pageScale="1" pageWidth="827" pageHeight="1169" math="1" shadow="0">
      <root>
        <mxCell id="0" />
        <mxCell id="1" parent="0" />
        <mxCell id="_u33kkMeH_GjYBAgUgvF-1" value="" style="rounded=0;whiteSpace=wrap;html=1;rotation=90;fillColor=#969696;fontColor=#333333;strokeColor=#666666;" parent="1" vertex="1">
          <mxGeometry x="116.25" y="556.25" width="137.5" height="190" as="geometry" />
        </mxCell>
        <mxCell id="_u33kkMeH_GjYBAgUgvF-3" value="" style="rounded=0;whiteSpace=wrap;html=1;rotation=90;" parent="1" vertex="1">
          <mxGeometry x="300" y="555" width="140.25" height="190" as="geometry" />
        </mxCell>
        <mxCell id="_u33kkMeH_GjYBAgUgvF-11" value="" style="group" parent="1" vertex="1" connectable="0">
          <mxGeometry x="120" y="600" width="120" height="100" as="geometry" />
        </mxCell>
        <mxCell id="_u33kkMeH_GjYBAgUgvF-4" value="" style="rounded=0;whiteSpace=wrap;html=1;fillColor=#000000;" parent="_u33kkMeH_GjYBAgUgvF-11" vertex="1">
          <mxGeometry width="40" height="20" as="geometry" />
        </mxCell>
        <mxCell id="_u33kkMeH_GjYBAgUgvF-5" value="" style="rounded=0;whiteSpace=wrap;html=1;fillColor=#000000;" parent="_u33kkMeH_GjYBAgUgvF-11" vertex="1">
          <mxGeometry x="80" width="40" height="20" as="geometry" />
        </mxCell>
        <mxCell id="_u33kkMeH_GjYBAgUgvF-8" value="" style="rounded=0;whiteSpace=wrap;html=1;fillColor=#000000;" parent="_u33kkMeH_GjYBAgUgvF-11" vertex="1">
          <mxGeometry y="80" width="40" height="20" as="geometry" />
        </mxCell>
        <mxCell id="_u33kkMeH_GjYBAgUgvF-9" value="" style="rounded=0;whiteSpace=wrap;html=1;fillColor=#000000;" parent="_u33kkMeH_GjYBAgUgvF-11" vertex="1">
          <mxGeometry x="80" y="80" width="40" height="20" as="geometry" />
        </mxCell>
        <mxCell id="_u33kkMeH_GjYBAgUgvF-10" value="" style="rounded=0;whiteSpace=wrap;html=1;fillColor=#fff2cc;strokeColor=#d6b656;" parent="_u33kkMeH_GjYBAgUgvF-11" vertex="1">
          <mxGeometry x="10" y="20" width="100" height="60" as="geometry" />
        </mxCell>
        <mxCell id="_u33kkMeH_GjYBAgUgvF-27" value="" style="ellipse;whiteSpace=wrap;html=1;aspect=fixed;fillColor=#000000;" parent="_u33kkMeH_GjYBAgUgvF-11" vertex="1">
          <mxGeometry x="55" y="45" width="10" height="10" as="geometry" />
        </mxCell>
        <mxCell id="_u33kkMeH_GjYBAgUgvF-35" value="" style="endArrow=classic;html=1;rounded=0;" parent="_u33kkMeH_GjYBAgUgvF-11" source="_u33kkMeH_GjYBAgUgvF-27" edge="1">
          <mxGeometry width="50" height="50" relative="1" as="geometry">
            <mxPoint x="90" y="120" as="sourcePoint" />
            <mxPoint x="90" y="50" as="targetPoint" />
          </mxGeometry>
        </mxCell>
        <mxCell id="_u33kkMeH_GjYBAgUgvF-36" value="" style="endArrow=classic;html=1;rounded=0;" parent="_u33kkMeH_GjYBAgUgvF-11" edge="1">
          <mxGeometry x="-1" y="15" width="50" height="50" relative="1" as="geometry">
            <mxPoint x="59.879999999996876" y="54.99999999999999" as="sourcePoint" />
            <mxPoint x="60" y="24" as="targetPoint" />
            <mxPoint as="offset" />
          </mxGeometry>
        </mxCell>
        <mxCell id="_u33kkMeH_GjYBAgUgvF-37" value="x" style="text;html=1;strokeColor=none;fillColor=none;align=center;verticalAlign=middle;whiteSpace=wrap;rounded=0;" parent="_u33kkMeH_GjYBAgUgvF-11" vertex="1">
          <mxGeometry x="60" y="45" width="60" height="30" as="geometry" />
        </mxCell>
        <mxCell id="_u33kkMeH_GjYBAgUgvF-38" value="y" style="text;html=1;strokeColor=none;fillColor=none;align=center;verticalAlign=middle;whiteSpace=wrap;rounded=0;" parent="_u33kkMeH_GjYBAgUgvF-11" vertex="1">
          <mxGeometry x="40" y="10" width="60" height="30" as="geometry" />
        </mxCell>
        <mxCell id="_u33kkMeH_GjYBAgUgvF-12" value="" style="endArrow=classic;html=1;rounded=0;" parent="1" edge="1">
          <mxGeometry width="50" height="50" relative="1" as="geometry">
            <mxPoint x="80" y="860" as="sourcePoint" />
            <mxPoint x="480.25" y="860" as="targetPoint" />
          </mxGeometry>
        </mxCell>
        <mxCell id="_u33kkMeH_GjYBAgUgvF-13" value="" style="endArrow=classic;html=1;rounded=0;" parent="1" edge="1">
          <mxGeometry width="50" height="50" relative="1" as="geometry">
            <mxPoint x="90" y="870" as="sourcePoint" />
            <mxPoint x="90" y="750" as="targetPoint" />
          </mxGeometry>
        </mxCell>
        <mxCell id="_u33kkMeH_GjYBAgUgvF-14" value="Paramètre du model qui explique l&#39;intéraction route et véhicule" style="text;html=1;strokeColor=none;fillColor=none;align=center;verticalAlign=middle;whiteSpace=wrap;rounded=0;" parent="1" vertex="1">
          <mxGeometry x="20" y="720" width="60" height="80" as="geometry" />
        </mxCell>
        <mxCell id="_u33kkMeH_GjYBAgUgvF-15" value="distance (m)" style="text;html=1;strokeColor=none;fillColor=none;align=center;verticalAlign=middle;whiteSpace=wrap;rounded=0;" parent="1" vertex="1">
          <mxGeometry x="480" y="860" width="100" height="20" as="geometry" />
        </mxCell>
        <mxCell id="_u33kkMeH_GjYBAgUgvF-16" value="Neige" style="text;html=1;strokeColor=none;fillColor=none;align=center;verticalAlign=middle;whiteSpace=wrap;rounded=0;" parent="1" vertex="1">
          <mxGeometry x="330" y="715" width="60" height="30" as="geometry" />
        </mxCell>
        <mxCell id="_u33kkMeH_GjYBAgUgvF-17" value="Asphalte" style="text;html=1;strokeColor=none;fillColor=none;align=center;verticalAlign=middle;whiteSpace=wrap;rounded=0;" parent="1" vertex="1">
          <mxGeometry x="150" y="715" width="60" height="30" as="geometry" />
        </mxCell>
        <mxCell id="_u33kkMeH_GjYBAgUgvF-18" value="" style="endArrow=none;html=1;rounded=0;strokeWidth=3;" parent="1" edge="1">
          <mxGeometry width="50" height="50" relative="1" as="geometry">
            <mxPoint x="90" y="780" as="sourcePoint" />
            <mxPoint x="270" y="780" as="targetPoint" />
          </mxGeometry>
        </mxCell>
        <mxCell id="_u33kkMeH_GjYBAgUgvF-19" value="" style="endArrow=none;html=1;rounded=0;strokeWidth=3;" parent="1" edge="1">
          <mxGeometry width="50" height="50" relative="1" as="geometry">
            <mxPoint x="270" y="830" as="sourcePoint" />
            <mxPoint x="480" y="830" as="targetPoint" />
          </mxGeometry>
        </mxCell>
        <mxCell id="_u33kkMeH_GjYBAgUgvF-20" value="" style="endArrow=none;html=1;rounded=0;strokeWidth=3;" parent="1" edge="1">
          <mxGeometry width="50" height="50" relative="1" as="geometry">
            <mxPoint x="270" y="830" as="sourcePoint" />
            <mxPoint x="270" y="780" as="targetPoint" />
          </mxGeometry>
        </mxCell>
        <mxCell id="_u33kkMeH_GjYBAgUgvF-50" value="" style="endArrow=none;html=1;rounded=0;strokeWidth=3;fillColor=#f8cecc;strokeColor=#b85450;dashed=1;" parent="1" edge="1">
          <mxGeometry width="50" height="50" relative="1" as="geometry">
            <mxPoint x="90" y="780" as="sourcePoint" />
            <mxPoint x="480" y="780" as="targetPoint" />
          </mxGeometry>
        </mxCell>
        <mxCell id="_u33kkMeH_GjYBAgUgvF-51" value="Paramètres si le modèle est entraîné sur l&#39;asphalte" style="text;html=1;strokeColor=#b85450;fillColor=#f8cecc;align=center;verticalAlign=middle;whiteSpace=wrap;rounded=0;" parent="1" vertex="1">
          <mxGeometry x="480" y="746.25" width="140" height="50" as="geometry" />
        </mxCell>
        <mxCell id="_u33kkMeH_GjYBAgUgvF-52" value="Paramètres évolutif selon le terrain" style="text;html=1;align=center;verticalAlign=middle;whiteSpace=wrap;rounded=0;strokeColor=default;fillColor=default;" parent="1" vertex="1">
          <mxGeometry x="480" y="800" width="140" height="50" as="geometry" />
        </mxCell>
        <mxCell id="hM9hAGtArGgsAycG0NxB-1" value="Modèle de véhicule" style="rounded=0;whiteSpace=wrap;html=1;" vertex="1" parent="1">
          <mxGeometry x="270" y="960" width="190" height="100" as="geometry" />
        </mxCell>
        <mxCell id="hM9hAGtArGgsAycG0NxB-2" value="&lt;div&gt;$$&lt;code&gt;\begin{bmatrix}&lt;/code&gt;&lt;/div&gt;&lt;div&gt;&lt;code&gt;&lt;/code&gt;&lt;/div&gt;&lt;code&gt;1 &amp;amp; 2 &amp;amp; 3\\&lt;br&gt;a &amp;amp; b &amp;amp; c&lt;br&gt;&lt;/code&gt;&lt;div&gt;&lt;code&gt;\end{bmatrix}$$&lt;/code&gt;&lt;/div&gt;&lt;div&gt;&lt;code&gt;&lt;br&gt;&lt;/code&gt;&lt;/div&gt;" style="endArrow=classic;html=1;rounded=0;entryX=0;entryY=0.25;entryDx=0;entryDy=0;" edge="1" parent="1" target="hM9hAGtArGgsAycG0NxB-1">
          <mxGeometry width="50" height="50" relative="1" as="geometry">
            <mxPoint x="150" y="985" as="sourcePoint" />
            <mxPoint x="200" y="970" as="targetPoint" />
          </mxGeometry>
        </mxCell>
        <mxCell id="hM9hAGtArGgsAycG0NxB-3" value="&lt;div&gt;$$\begin{bmatrix&lt;code&gt;} \end{bmatrix&lt;/code&gt;&lt;code&gt;}$$&lt;/code&gt;&lt;/div&gt;&lt;div&gt;&lt;code&gt;&lt;br&gt;&lt;/code&gt;&lt;/div&gt;" style="text;html=1;align=center;verticalAlign=middle;resizable=0;points=[];autosize=1;strokeColor=none;fillColor=none;" vertex="1" parent="1">
          <mxGeometry x="210" y="1090" width="230" height="40" as="geometry" />
        </mxCell>
      </root>
    </mxGraphModel>
  </diagram>
</mxfile>
